<mxfile host="app.diagrams.net" agent="Mozilla/5.0 (Windows NT 10.0; Win64; x64) AppleWebKit/537.36 (KHTML, like Gecko) Chrome/131.0.0.0 Safari/537.36" version="24.9.1">
  <diagram name="Page-1" id="sbO68Fd5UyvL80p5C4xV">
    <mxGraphModel dx="4200" dy="2688" grid="0" gridSize="10" guides="1" tooltips="1" connect="1" arrows="1" fold="1" page="0" pageScale="1" pageWidth="827" pageHeight="1169" math="0" shadow="0">
      <root>
        <mxCell id="0" />
        <mxCell id="1" parent="0" />
        <mxCell id="gRsuBQh7-UYSe7JB_83j-1" value="" style="rounded=0;whiteSpace=wrap;html=1;" vertex="1" parent="1">
          <mxGeometry x="264" y="-318" width="928" height="1445" as="geometry" />
        </mxCell>
        <mxCell id="gRsuBQh7-UYSe7JB_83j-2" value="send Encrypted messages" style="ellipse;whiteSpace=wrap;html=1;fontSize=25;" vertex="1" parent="1">
          <mxGeometry x="806" y="243" width="224" height="116" as="geometry" />
        </mxCell>
        <mxCell id="gRsuBQh7-UYSe7JB_83j-3" value="Use public key cryptosystem" style="ellipse;whiteSpace=wrap;html=1;fontSize=25;" vertex="1" parent="1">
          <mxGeometry x="540.5" y="349" width="214" height="122" as="geometry" />
        </mxCell>
        <mxCell id="gRsuBQh7-UYSe7JB_83j-4" value="Share keys with communication Partner" style="ellipse;whiteSpace=wrap;html=1;fontSize=25;" vertex="1" parent="1">
          <mxGeometry x="765" y="538" width="234" height="149" as="geometry" />
        </mxCell>
        <mxCell id="gRsuBQh7-UYSe7JB_83j-5" value="Register Account" style="ellipse;whiteSpace=wrap;html=1;fontSize=25;" vertex="1" parent="1">
          <mxGeometry x="453" y="70" width="186" height="128" as="geometry" />
        </mxCell>
        <mxCell id="gRsuBQh7-UYSe7JB_83j-11" style="edgeStyle=none;curved=1;rounded=0;orthogonalLoop=1;jettySize=auto;html=1;entryX=0;entryY=0.5;entryDx=0;entryDy=0;fontSize=25;startSize=8;endSize=8;dashed=1;dashPattern=1 4;" edge="1" parent="1" source="gRsuBQh7-UYSe7JB_83j-6" target="gRsuBQh7-UYSe7JB_83j-9">
          <mxGeometry relative="1" as="geometry" />
        </mxCell>
        <mxCell id="gRsuBQh7-UYSe7JB_83j-12" value="Include" style="edgeLabel;html=1;align=center;verticalAlign=middle;resizable=0;points=[];fontSize=25;" vertex="1" connectable="0" parent="gRsuBQh7-UYSe7JB_83j-11">
          <mxGeometry x="-0.115" y="2" relative="1" as="geometry">
            <mxPoint as="offset" />
          </mxGeometry>
        </mxCell>
        <mxCell id="gRsuBQh7-UYSe7JB_83j-6" value="Login" style="ellipse;whiteSpace=wrap;html=1;fontSize=25;" vertex="1" parent="1">
          <mxGeometry x="453" y="-177" width="158" height="110" as="geometry" />
        </mxCell>
        <mxCell id="gRsuBQh7-UYSe7JB_83j-23" style="edgeStyle=none;curved=1;rounded=0;orthogonalLoop=1;jettySize=auto;html=1;exitX=1;exitY=0.3333333333333333;exitDx=0;exitDy=0;exitPerimeter=0;entryX=0;entryY=0.5;entryDx=0;entryDy=0;fontSize=12;startSize=8;endSize=8;" edge="1" parent="1" source="gRsuBQh7-UYSe7JB_83j-7" target="gRsuBQh7-UYSe7JB_83j-6">
          <mxGeometry relative="1" as="geometry" />
        </mxCell>
        <mxCell id="gRsuBQh7-UYSe7JB_83j-24" style="edgeStyle=none;curved=1;rounded=0;orthogonalLoop=1;jettySize=auto;html=1;exitX=1;exitY=0.3333333333333333;exitDx=0;exitDy=0;exitPerimeter=0;entryX=0;entryY=0.5;entryDx=0;entryDy=0;fontSize=12;startSize=8;endSize=8;" edge="1" parent="1" source="gRsuBQh7-UYSe7JB_83j-7" target="gRsuBQh7-UYSe7JB_83j-5">
          <mxGeometry relative="1" as="geometry" />
        </mxCell>
        <mxCell id="gRsuBQh7-UYSe7JB_83j-25" style="edgeStyle=none;curved=1;rounded=0;orthogonalLoop=1;jettySize=auto;html=1;exitX=1;exitY=0.3333333333333333;exitDx=0;exitDy=0;exitPerimeter=0;entryX=0;entryY=0.5;entryDx=0;entryDy=0;fontSize=12;startSize=8;endSize=8;" edge="1" parent="1" source="gRsuBQh7-UYSe7JB_83j-7" target="gRsuBQh7-UYSe7JB_83j-2">
          <mxGeometry relative="1" as="geometry" />
        </mxCell>
        <mxCell id="gRsuBQh7-UYSe7JB_83j-27" style="edgeStyle=none;curved=1;rounded=0;orthogonalLoop=1;jettySize=auto;html=1;exitX=1;exitY=0.3333333333333333;exitDx=0;exitDy=0;exitPerimeter=0;entryX=0;entryY=0.5;entryDx=0;entryDy=0;fontSize=12;startSize=8;endSize=8;" edge="1" parent="1" source="gRsuBQh7-UYSe7JB_83j-7" target="gRsuBQh7-UYSe7JB_83j-8">
          <mxGeometry relative="1" as="geometry" />
        </mxCell>
        <mxCell id="gRsuBQh7-UYSe7JB_83j-28" style="edgeStyle=none;curved=1;rounded=0;orthogonalLoop=1;jettySize=auto;html=1;exitX=1;exitY=0.3333333333333333;exitDx=0;exitDy=0;exitPerimeter=0;entryX=0;entryY=0.5;entryDx=0;entryDy=0;fontSize=12;startSize=8;endSize=8;" edge="1" parent="1" source="gRsuBQh7-UYSe7JB_83j-7" target="gRsuBQh7-UYSe7JB_83j-4">
          <mxGeometry relative="1" as="geometry" />
        </mxCell>
        <mxCell id="gRsuBQh7-UYSe7JB_83j-29" style="edgeStyle=none;curved=1;rounded=0;orthogonalLoop=1;jettySize=auto;html=1;exitX=1;exitY=0.3333333333333333;exitDx=0;exitDy=0;exitPerimeter=0;fontSize=12;startSize=8;endSize=8;" edge="1" parent="1" source="gRsuBQh7-UYSe7JB_83j-7" target="gRsuBQh7-UYSe7JB_83j-22">
          <mxGeometry relative="1" as="geometry" />
        </mxCell>
        <mxCell id="gRsuBQh7-UYSe7JB_83j-7" value="" style="shape=umlActor;verticalLabelPosition=bottom;verticalAlign=top;html=1;outlineConnect=0;" vertex="1" parent="1">
          <mxGeometry x="95" y="243" width="122" height="202" as="geometry" />
        </mxCell>
        <mxCell id="gRsuBQh7-UYSe7JB_83j-8" value="Verify Received Messages&amp;nbsp;" style="ellipse;whiteSpace=wrap;html=1;fontSize=25;" vertex="1" parent="1">
          <mxGeometry x="562" y="887" width="231" height="133" as="geometry" />
        </mxCell>
        <mxCell id="gRsuBQh7-UYSe7JB_83j-9" value="Authenticate" style="ellipse;whiteSpace=wrap;html=1;fontSize=25;" vertex="1" parent="1">
          <mxGeometry x="801" y="-252" width="239" height="117" as="geometry" />
        </mxCell>
        <mxCell id="gRsuBQh7-UYSe7JB_83j-13" style="edgeStyle=none;curved=1;rounded=0;orthogonalLoop=1;jettySize=auto;html=1;entryX=1;entryY=1;entryDx=0;entryDy=0;fontSize=25;startSize=8;endSize=8;dashed=1;dashPattern=1 4;" edge="1" parent="1" source="gRsuBQh7-UYSe7JB_83j-10" target="gRsuBQh7-UYSe7JB_83j-6">
          <mxGeometry relative="1" as="geometry" />
        </mxCell>
        <mxCell id="gRsuBQh7-UYSe7JB_83j-14" value="Exclude" style="edgeLabel;html=1;align=center;verticalAlign=middle;resizable=0;points=[];fontSize=25;" vertex="1" connectable="0" parent="gRsuBQh7-UYSe7JB_83j-13">
          <mxGeometry x="0.0011" y="7" relative="1" as="geometry">
            <mxPoint as="offset" />
          </mxGeometry>
        </mxCell>
        <mxCell id="gRsuBQh7-UYSe7JB_83j-10" value="Invalid username or password" style="ellipse;whiteSpace=wrap;html=1;fontSize=25;" vertex="1" parent="1">
          <mxGeometry x="793" y="-36" width="264" height="142" as="geometry" />
        </mxCell>
        <mxCell id="gRsuBQh7-UYSe7JB_83j-22" value="Secure Internet Services" style="ellipse;whiteSpace=wrap;html=1;fontSize=25;" vertex="1" parent="1">
          <mxGeometry x="548.5" y="683" width="198" height="151" as="geometry" />
        </mxCell>
        <mxCell id="gRsuBQh7-UYSe7JB_83j-26" style="edgeStyle=none;curved=1;rounded=0;orthogonalLoop=1;jettySize=auto;html=1;exitX=1;exitY=0.3333333333333333;exitDx=0;exitDy=0;exitPerimeter=0;entryX=0.09;entryY=0.701;entryDx=0;entryDy=0;entryPerimeter=0;fontSize=12;startSize=8;endSize=8;" edge="1" parent="1" source="gRsuBQh7-UYSe7JB_83j-7" target="gRsuBQh7-UYSe7JB_83j-3">
          <mxGeometry relative="1" as="geometry" />
        </mxCell>
      </root>
    </mxGraphModel>
  </diagram>
</mxfile>
